<svg width="44" height="46" viewBox="0 0 44 46" fill="none" xmlns="http://www.w3.org/2000/svg">
<ellipse cx="21.3303" cy="18.8114" rx="18.1448" ry="18.1329" fill="#A5A5A4"/>
<ellipse cx="21.3802" cy="18.7619" rx="14.4466" ry="14.4372" fill="#6C92A7"/>
<rect x="8.41016" y="25.217" width="25.9349" height="14.2893" fill="#3E3333"/>
<path d="M11.565 28.8633C11.565 29.2986 11.2119 29.6516 10.7761 29.6516C10.3404 29.6516 9.98722 29.2986 9.98722 28.8633C9.98722 28.428 10.3404 28.075 10.7761 28.075C11.2119 28.075 11.565 28.428 11.565 28.8633Z" stroke="white" stroke-width="0.197099"/>
<path d="M13.3404 33.988C13.3404 34.4233 12.9873 34.7763 12.5515 34.7763C12.1158 34.7763 11.7626 34.4233 11.7626 33.988C11.7626 33.5526 12.1158 33.1996 12.5515 33.1996C12.9873 33.1996 13.3404 33.5526 13.3404 33.988Z" stroke="white" stroke-width="0.197099"/>
<path d="M15.1139 35.8603C15.1139 36.2956 14.7607 36.6486 14.325 36.6486C13.8892 36.6486 13.536 36.2956 13.536 35.8603C13.536 35.4249 13.8892 35.0719 14.325 35.0719C14.7607 35.0719 15.1139 35.4249 15.1139 35.8603Z" stroke="white" stroke-width="0.197099"/>
<circle cx="12.4528" cy="35.4662" r="0.295619" stroke="white" stroke-width="0.197099"/>
<path d="M26.4557 34.0866C26.4557 34.5219 26.1025 34.8749 25.6668 34.8749C25.231 34.8749 24.8778 34.5219 24.8778 34.0866C24.8778 33.6513 25.231 33.2983 25.6668 33.2983C26.1025 33.2983 26.4557 33.6513 26.4557 34.0866Z" stroke="white" stroke-width="0.197099"/>
<circle cx="23.8931" cy="37.93" r="0.394161" stroke="white" stroke-width="0.197099"/>
<circle cx="22.315" cy="31.9184" r="0.394161" stroke="white" stroke-width="0.197099"/>
<circle cx="18.5669" cy="35.6632" r="0.394161" stroke="white" stroke-width="0.197099"/>
<path d="M27.3443 29.2576C27.3443 29.6929 26.9912 30.0459 26.5554 30.0459C26.1197 30.0459 25.7665 29.6929 25.7665 29.2576C25.7665 28.8223 26.1197 28.4693 26.5554 28.4693C26.9912 28.4693 27.3443 28.8223 27.3443 29.2576Z" stroke="white" stroke-width="0.197099"/>
<path d="M19.4544 30.8836C19.4544 31.6727 18.8142 32.3125 18.0245 32.3125C17.2348 32.3125 16.5946 31.6727 16.5946 30.8836C16.5946 30.0945 17.2348 29.4548 18.0245 29.4548C18.8142 29.4548 19.4544 30.0945 19.4544 30.8836Z" stroke="white" stroke-width="0.197099"/>
<circle cx="31.6817" cy="29.307" r="0.34489" stroke="white" stroke-width="0.197099"/>
<circle cx="29.2677" cy="27.9272" r="0.34489" stroke="white" stroke-width="0.197099"/>
<circle cx="30.1544" cy="36.5997" r="0.34489" stroke="white" stroke-width="0.197099"/>
<circle cx="13.2911" cy="29.701" r="0.34489" stroke="white" stroke-width="0.197099"/>
<rect x="3.51172" y="41.8722" width="35.7452" height="3.44919" fill="#7B7D82"/>
<rect x="0.621094" y="34.0868" width="4.5557" height="11.2344" rx="1.47824" fill="#5E5F62"/>
<rect x="38.4688" y="34.0869" width="4.5557" height="11.2344" rx="1.47824" fill="#5E5F62"/>
<path d="M5.15625 37.5833V41.6751H38.4874V36.5225C38.0595 35.4919 36.6906 35.891 36.0596 36.2194C35.4012 37.0377 33.7827 36.7624 33.0557 36.5225C32.3561 36.2446 30.8089 35.8557 30.2164 36.5225C29.6238 37.1893 28.2138 36.8003 27.5828 36.5225C26.4635 35.5223 25.251 36.333 24.7846 36.8635C23.3691 37.6212 22.1648 36.9519 21.7395 36.5225C20.0936 35.2343 19.1883 37.1665 18.9414 37.1665C17.1966 37.9546 15.4162 37.2928 14.7441 36.8635C13.987 35.6208 12.5632 36.3457 11.9459 36.8635C10.8925 37.5 9.58669 37.3307 9.06546 37.1665C7.2878 35.9845 5.71863 36.9518 5.15625 37.5833Z" fill="#302727" stroke="#3E3333" stroke-width="0.0985495"/>
<circle cx="0.683214" cy="0.683214" r="0.584665" transform="matrix(-1 0 0 1 35.7539 38.0696)" stroke="white" stroke-width="0.197099"/>
<circle cx="0.398542" cy="0.398542" r="0.299992" transform="matrix(-1 0 0 1 35.8281 39.5924)" stroke="white" stroke-width="0.197099"/>
<circle cx="0.683214" cy="0.683214" r="0.584665" transform="matrix(-1 0 0 1 34.6309 39.4216)" stroke="white" stroke-width="0.197099"/>
<circle cx="0.472995" cy="0.472995" r="0.374445" transform="matrix(0.0467211 0.998908 -0.998911 0.0466599 9.30859 39.3594)" stroke="white" stroke-width="0.197099"/>
<circle cx="0.275914" cy="0.275914" r="0.177364" transform="matrix(0.0467211 0.998908 -0.998911 0.0466599 8.25195 39.3591)" stroke="white" stroke-width="0.197099"/>
<circle cx="0.472995" cy="0.472995" r="0.374445" transform="matrix(0.0467211 0.998908 -0.998911 0.0466599 8.41016 40.1804)" stroke="white" stroke-width="0.197099"/>
<circle cx="15.2152" cy="39.4083" r="0.591245" stroke="white" stroke-width="0.197099"/>
<path d="M19.5532 39.9996C19.5532 40.5438 19.1118 40.985 18.5671 40.985C18.0224 40.985 17.581 40.5438 17.581 39.9996C17.581 39.4554 18.0224 39.0142 18.5671 39.0142C19.1118 39.0142 19.5532 39.4554 19.5532 39.9996Z" stroke="white" stroke-width="0.197099"/>
<circle cx="22.315" cy="38.4226" r="0.394161" stroke="white" stroke-width="0.197099"/>
<circle cx="28.3306" cy="38.0286" r="0.394161" stroke="white" stroke-width="0.197099"/>
</svg>
