<svg width="113" height="112" viewBox="0 0 113 112" fill="none" xmlns="http://www.w3.org/2000/svg">
<circle cx="56.542" cy="56.2794" r="55.5044" fill="#D99942" stroke="#262626" stroke-width="0.301655"/>
<circle cx="56.5418" cy="56.2794" r="48.9831" fill="#FEDB49" stroke="#262626" stroke-width="0.324392"/>
<circle cx="28.5126" cy="36.8024" r="10.3375" fill="#DB401E" stroke="#262626" stroke-width="0.459482"/>
<circle cx="21.7137" cy="60.0766" r="10.3375" fill="#DB401E" stroke="#262626" stroke-width="0.459482"/>
<circle cx="36.7729" cy="87.6579" r="9.03306" fill="#DB401E" stroke="#262626" stroke-width="0.4015"/>
<circle cx="93.3368" cy="51.5123" r="10.3375" fill="#DB401E" stroke="#262626" stroke-width="0.459482"/>
<circle cx="84.4677" cy="74.5151" r="10.3375" fill="#DB401E" stroke="#262626" stroke-width="0.459482"/>
<circle cx="50.0165" cy="69.418" r="10.3375" fill="#DB401E" stroke="#262626" stroke-width="0.459482"/>
<circle cx="81.4481" cy="28.4974" r="10.3375" fill="#DB401E" stroke="#262626" stroke-width="0.459482"/>
<circle cx="63.3348" cy="91.144" r="10.3375" fill="#DB401E" stroke="#262626" stroke-width="0.459482"/>
<circle cx="60.3134" cy="46.414" r="10.3375" fill="#DB401E" stroke="#262626" stroke-width="0.459482"/>
<circle cx="49.6454" cy="20.4346" r="10.3375" fill="#DB401E" stroke="#262626" stroke-width="0.459482"/>
<path d="M56.5703 0.877464V111.357" stroke="#262626" stroke-width="0.301655"/>
<path d="M111.811 56.1173L1.33093 56.1173" stroke="#262626" stroke-width="0.301655"/>
<path d="M104.41 28.4974L8.73199 83.7372" stroke="#262626" stroke-width="0.301655"/>
<path d="M104.41 83.7372L8.732 28.4974" stroke="#262626" stroke-width="0.301655"/>
<path d="M27.4623 29.4928C25.9181 32.2178 15.787 49.5985 15.9193 64.5877C15.9295 65.7496 16.2481 66.9058 16.8008 67.9278C36.0685 103.561 89.1147 89.0958 95.3269 73.192C98.4177 65.2794 92.808 49.1291 85.9476 30.1438C85.367 28.5371 84.3329 27.1099 82.93 26.1349C55.386 6.99269 30.8001 23.6027 27.4623 29.4928Z" fill="#8AC544" stroke="#262626" stroke-width="0.402757"/>
<path d="M42.8565 35.7049C42.5624 35.563 42.1112 35.403 41.503 35.2251C41.0082 35.0804 40.5898 34.9805 40.2479 34.9252C40.0636 34.9049 39.843 34.9131 39.5861 34.9499L39.2316 35.0141L39.3569 35.5039C39.452 35.8674 39.6162 36.2623 39.8496 36.6887C40.077 37.1356 40.3317 37.4507 40.6139 37.634C40.8371 37.7888 41.0622 37.8994 41.289 37.9657C41.5364 38.038 41.8322 38.0406 42.1763 37.9734C42.615 37.8891 42.9951 37.7373 43.3166 37.518C43.6411 37.2884 43.8411 37.0447 43.9165 36.787C43.9587 36.6427 43.9652 36.5439 43.936 36.4906C43.9202 36.43 43.8248 36.335 43.6501 36.2056C43.3843 36.0048 43.1198 35.8379 42.8565 35.7049ZM41.1615 30.7108C41.113 30.6854 41.0527 30.6622 40.9805 30.6411C40.9114 30.6097 40.8371 30.5767 40.7576 30.5423C40.6781 30.5079 40.623 30.4861 40.592 30.4771L40.4374 30.4319C39.7158 30.2208 39.3415 30.1617 39.3143 30.2545C39.2782 30.3782 39.2285 30.7777 39.1652 31.453C39.105 32.118 39.0865 32.4874 39.1097 32.5613C39.1358 32.6249 39.2389 32.6551 39.4189 32.6518C39.5886 32.6455 39.8988 32.5795 40.3496 32.454C40.8106 32.3314 41.1529 32.2133 41.3764 32.0997C41.5969 31.9963 41.7982 31.8817 41.9805 31.756C42.176 31.6229 42.2829 31.5255 42.3009 31.4637L42.2945 31.4282C42.2653 31.3749 42.1133 31.2633 41.8385 31.0934C41.5667 30.9132 41.341 30.7857 41.1615 30.7108ZM40.4784 28.1107L40.6021 28.1469C40.6876 28.1607 40.7664 28.1782 40.8386 28.1993C40.8901 28.2144 40.9865 28.2482 41.1278 28.3007C41.2722 28.3429 41.3804 28.3745 41.4526 28.3956C41.9207 28.5549 42.3025 28.7225 42.598 28.8985C42.8964 29.0641 43.2232 29.3051 43.5782 29.6216C44.008 30.027 44.2773 30.3687 44.3862 30.6468C44.4981 30.9145 44.4953 31.2494 44.3777 31.6514C44.236 32.1359 43.9713 32.6012 43.5835 33.0473C43.4007 33.2512 43.3166 33.3665 43.3312 33.3931L43.8208 33.6706C44.4486 34.0109 44.9617 34.4183 45.36 34.8929C45.7584 35.3675 45.9554 35.8223 45.9512 36.2575C45.9498 36.4921 45.9008 36.7743 45.8043 37.1042C45.7049 37.4444 45.588 37.7291 45.4538 37.9584C45.2688 38.2848 45.0175 38.6085 44.6998 38.9296C44.3821 39.2507 44.09 39.4842 43.8235 39.6301C43.4105 39.8562 42.9398 39.9927 42.4113 40.0396C41.8932 40.0895 41.3918 40.0436 40.9073 39.9019C40.0414 39.6486 39.3369 39.0733 38.7937 38.1759C38.2534 37.2681 37.9416 36.0579 37.858 34.5452C37.8152 33.8501 37.7903 33.4567 37.7835 33.3652C37.7759 33.1616 37.7997 33.0231 37.8547 32.9496C37.871 32.932 37.8928 32.8768 37.9199 32.7841C37.9712 32.6088 38.0145 32.4033 38.0499 32.1675C38.09 31.8771 38.2011 31.3444 38.3829 30.5696C38.4919 30.1203 38.5506 29.8241 38.5589 29.6811C38.5774 29.541 38.5668 29.3477 38.5271 29.1011C38.4672 28.7702 38.4538 28.5481 38.4869 28.4347C38.5111 28.3522 38.5558 28.2758 38.6212 28.2054C38.7875 28.0191 39.4066 27.9875 40.4784 28.1107ZM48.5728 32.9119L47.951 34.6939C47.5497 35.8746 47.3415 36.4907 47.3265 36.5422C47.3234 36.5525 47.3965 36.5515 47.5456 36.5392C47.708 36.5195 47.9022 36.4868 48.1282 36.441L48.919 36.3198L48.872 35.3325C48.8508 34.9458 48.8081 34.3459 48.7438 33.5326C48.7327 33.4174 48.721 33.2853 48.7086 33.1362C48.6993 32.9768 48.6882 32.8617 48.6754 32.7908L48.6761 32.6735L48.5728 32.9119ZM48.2305 29.6058C48.3552 29.4856 48.5502 29.4307 48.8157 29.4412C49.0812 29.4518 49.2861 29.4781 49.4304 29.5203C49.616 29.5746 49.7777 29.6722 49.9155 29.8132C50.046 29.9409 50.1359 30.0735 50.1852 30.211C50.2448 30.3516 50.3061 30.5821 50.369 30.9026C50.4905 31.5201 50.6282 32.9815 50.7821 35.2869C50.8075 35.6972 50.8419 35.9814 50.8852 36.1395C50.9418 36.2903 51.0362 36.4075 51.1685 36.4909C51.2625 36.552 51.2764 36.6959 51.2101 36.9227C51.1678 37.067 51.108 37.195 51.0306 37.3066C50.9859 37.3831 50.959 37.4367 50.95 37.4677C50.9108 37.6017 50.912 37.9993 50.9536 38.6605C50.9947 39.3999 50.9927 39.8469 50.9475 40.0015C50.8691 40.2695 50.6798 40.5723 50.3797 40.9097C50.0796 41.2472 49.8625 41.3963 49.7285 41.3571C49.6564 41.336 49.5626 41.2358 49.4471 41.0566C49.1781 40.6758 49.0265 39.8929 48.9926 38.708L48.9661 37.9953L48.1832 37.9174C47.4872 37.8481 47.1341 37.812 47.1238 37.809C46.9941 37.7934 46.9129 37.8033 46.8802 37.8385C46.8445 37.884 46.6567 38.3158 46.3167 39.134C46.1114 39.6446 45.9486 39.9719 45.8282 40.1157C45.7241 40.2419 45.636 40.2945 45.5638 40.2734C45.4917 40.2523 45.4385 40.1472 45.4043 39.9581C45.3756 39.8267 45.3865 39.6172 45.4369 39.3299C45.4904 39.0322 45.6458 38.367 45.903 37.3345C46.4856 34.9982 46.9833 33.124 47.3964 31.7118C47.6074 30.9902 47.7473 30.5499 47.8162 30.391C47.981 29.9804 48.1191 29.7187 48.2305 29.6058Z" fill="white"/>
<path d="M74.7042 26.0268C74.7819 25.9527 74.9417 25.9086 75.1837 25.8947C75.4362 25.8825 75.6736 25.895 75.8961 25.9323C76.055 25.9589 76.1485 25.9854 76.1768 26.0119C76.3038 26.0985 76.3771 26.1489 76.3965 26.1631C76.5271 26.2285 76.6151 26.5481 76.6606 27.122C76.7167 27.6977 76.7128 28.2742 76.6488 28.8515C76.5919 29.3211 76.5985 29.9974 76.6685 30.8803C76.8924 33.7708 77.0466 35.3539 77.1312 35.6294C77.207 35.8272 77.2218 36.0638 77.1757 36.3392C77.1154 36.6994 76.9341 37.0992 76.6319 37.5386C76.4587 37.7927 76.3032 37.9083 76.1655 37.8852C76.0701 37.8693 75.9493 37.7783 75.8028 37.6122C75.4465 37.204 75.1973 36.2204 75.0554 34.6612C74.9661 33.6988 74.9047 33.1876 74.8712 33.1276C74.8377 33.0675 74.8192 32.9501 74.8158 32.7753C74.8089 32.6216 74.786 32.5307 74.7471 32.5024C74.7189 32.5412 74.6977 32.5704 74.6835 32.5898C74.6764 32.6321 74.3947 32.8191 73.8382 33.1506C73.3207 33.4451 72.9983 33.6471 72.8711 33.7564C72.7562 33.857 72.6784 34.0291 72.6376 34.2727C72.6093 34.4422 72.5906 34.5861 72.5817 34.7044C72.5728 34.8227 72.5541 34.9666 72.5258 35.1361C72.5045 35.2632 72.4753 35.3726 72.4381 35.4644C72.4134 35.5474 72.3912 35.6145 72.3718 35.6657C72.3541 35.7063 72.3099 35.7751 72.2392 35.8722C72.1791 35.971 72.1331 36.0504 72.1013 36.1104C72.0129 36.2481 71.9122 36.3619 71.7991 36.4519C71.6966 36.5436 71.6136 36.5842 71.5501 36.5735C71.3506 36.5292 71.1742 36.2819 71.0209 35.8315C70.8782 35.383 70.7375 34.6625 70.5987 33.67C70.395 32.1549 70.1887 30.4924 69.9799 28.6824C69.7817 26.8742 69.6933 25.9066 69.7145 25.7795C69.7252 25.7159 69.7711 25.6692 69.8524 25.6392C69.946 25.6004 70.021 25.6075 70.0775 25.6605C70.1816 25.7542 70.473 26.9083 70.9516 29.1228C71.2824 30.7245 71.491 31.6578 71.5773 31.9227C71.5932 31.9581 71.6055 31.9819 71.6143 31.9943C71.6231 32.0066 71.639 32.0093 71.662 32.0023C71.6849 31.9952 71.715 31.9785 71.7521 31.952C71.7892 31.9255 71.8404 31.8797 71.9058 31.8144C72.1107 31.6309 72.442 31.4087 72.8995 31.1477C73.6838 30.6909 74.1891 30.2093 74.4155 29.7027C74.4632 29.6127 74.4959 29.5147 74.5137 29.4088C74.5332 29.2923 74.5335 28.9003 74.5145 28.2328C74.4993 27.3482 74.52 26.7364 74.5768 26.3975C74.6105 26.1962 74.6529 26.0726 74.7042 26.0268ZM82.4323 28.0066C82.676 27.9821 82.9143 27.9893 83.1474 28.0283C83.6558 28.1134 83.9885 28.3052 84.1454 28.6038C84.2018 28.7221 84.2079 28.9137 84.1635 29.1785C84.0979 29.5704 83.9617 29.9614 83.7548 30.3515C83.5939 30.6621 83.319 31.1007 82.9302 31.6672C82.5413 32.2337 82.2188 32.6643 81.9625 32.959C81.7858 33.169 81.6939 33.2952 81.6868 33.3375C80.3296 35.0051 79.6465 35.8654 79.6376 35.9183L79.6535 35.921C79.7171 35.9316 79.9908 35.8577 80.4747 35.6991C80.9692 35.5423 81.3913 35.3952 81.741 35.2577C82.4881 34.9581 83.3254 34.5429 84.2527 34.0121C84.6608 33.7864 85.0211 33.6507 85.3336 33.605C85.6356 33.5576 85.8395 33.5427 85.9455 33.5604C86.009 33.5711 86.1299 33.6294 86.3082 33.7355L86.5411 33.9052L86.4428 34.2971C86.3791 34.5478 86.2438 34.8355 86.037 35.1602C85.832 35.4744 85.6234 35.7117 85.4114 35.8722C85.2348 36.0169 84.8788 36.2241 84.3436 36.4938C83.7961 36.7724 83.4975 36.9293 83.4481 36.9646C83.0471 37.2133 82.2629 37.5067 81.0956 37.8449C79.9388 38.1848 79.1168 38.314 78.6295 38.2324C78.2164 38.1632 77.883 37.7807 77.6292 37.0849C77.4724 36.6557 77.4179 36.2981 77.4658 36.0121C77.5208 35.6837 77.7108 35.2963 78.0361 34.8498C78.3736 34.3945 78.9727 33.6781 79.8333 32.7005C80.4801 31.9594 80.8044 31.5836 80.8061 31.573C80.8115 31.5412 81.0112 31.2915 81.4052 30.8239C82.1015 29.9822 82.4585 29.5083 82.4763 29.4024L82.4657 29.368C82.4463 29.3538 82.426 29.345 82.4048 29.3414C82.1188 29.2936 81.6191 29.3515 80.9056 29.5151C80.5542 29.5979 80.1339 29.7344 79.6446 29.9247C79.1572 30.1045 78.8154 30.2596 78.6193 30.3901C78.425 30.5101 78.3058 30.5391 78.2617 30.4773C78.2176 30.4155 78.2018 30.3475 78.2142 30.2733C78.2514 30.0509 78.5951 29.7218 79.2452 29.2862C80.4075 28.5225 81.4699 28.0959 82.4323 28.0066ZM88.5539 30.8446L88.1473 32.6876C87.8886 33.9075 87.7549 34.544 87.746 34.5969C87.7442 34.6075 87.8166 34.5979 87.9632 34.568C88.1221 34.5292 88.3111 34.4737 88.5301 34.4015L89.301 34.1875L89.1375 33.2128C89.0706 32.8313 88.9572 32.2406 88.7971 31.4407C88.7725 31.3276 88.7452 31.1978 88.7153 31.0513C88.6871 30.8941 88.6625 30.7811 88.6414 30.7122L88.6282 30.5957L88.5539 30.8446ZM87.8226 27.6023C87.9322 27.4681 88.1194 27.3906 88.3842 27.3696C88.6491 27.3486 88.8557 27.3505 89.004 27.3753C89.1947 27.4073 89.3668 27.4851 89.5203 27.6088C89.665 27.7201 89.77 27.8412 89.8352 27.9719C89.911 28.1043 89.9991 28.326 90.0996 28.6368C90.2933 29.2355 90.6031 30.6704 91.0287 32.9413C91.1026 33.3457 91.1703 33.6239 91.232 33.7758C91.3061 33.9189 91.4137 34.024 91.5549 34.0912C91.6555 34.1407 91.6863 34.282 91.6473 34.515C91.6225 34.6633 91.5782 34.7975 91.5146 34.9175C91.4792 34.9987 91.4589 35.0552 91.4536 35.087C91.4305 35.2247 91.4788 35.6193 91.5984 36.2709C91.7267 37.0003 91.7776 37.4444 91.751 37.6033C91.7049 37.8787 91.5528 38.2017 91.2948 38.5723C91.0367 38.9429 90.8388 39.1167 90.7011 39.0936C90.627 39.0812 90.522 38.9928 90.3861 38.8285C90.0739 38.4822 89.8307 37.7228 89.6568 36.5503L89.5461 35.8457L88.7595 35.861C88.0602 35.8746 87.7053 35.8806 87.6947 35.8788C87.5641 35.8787 87.4846 35.898 87.4563 35.9369C87.4263 35.9863 87.2909 36.4373 87.0501 37.29C86.9067 37.8213 86.7837 38.1656 86.6812 38.3226C86.5928 38.4603 86.5116 38.5229 86.4374 38.5105C86.3633 38.4981 86.298 38.4 86.2416 38.2164C86.1976 38.0892 86.1836 37.88 86.1997 37.5886C86.2176 37.2867 86.2931 36.6079 86.4263 35.5521C86.7282 33.1633 87.0007 31.2434 87.2436 29.7922C87.3678 29.0507 87.4546 28.5969 87.5042 28.431C87.6192 28.0038 87.7254 27.7275 87.8226 27.6023Z" fill="white"/>
<path d="M91.9434 60.1753C62.2086 75.6091 32.7655 68.3833 19.3308 60.3113C17.5334 59.2313 16.4789 57.2777 16.8403 55.2121C17.592 50.9156 19.8189 44.499 22.7688 38.4993C23.8748 36.2496 26.1657 34.8271 28.6661 35.0052C37.2632 35.6175 48.2572 38.8247 54.1901 41.065C56.6638 41.9991 59.546 42.0283 62.0266 41.1127C67.9805 38.915 76.9181 36.792 83.2305 36.2634C85.7478 36.0527 88.0129 37.5439 89.0822 39.8325C91.7124 45.4625 94.2208 52.0945 94.5446 56.2342C94.6801 57.9657 93.4849 59.3753 91.9434 60.1753Z" fill="#2D51A1" stroke="#262626" stroke-width="0.402757"/>
<path d="M61.2517 38.9978C60.8738 38.8453 60.4383 38.7537 59.9452 38.7232C59.2913 38.6826 58.5125 38.7473 57.6088 38.9173C57.3255 38.9751 57.1396 39.0227 57.0512 39.0603C56.9741 39.0878 56.934 39.1283 56.9306 39.1819C56.9213 39.332 56.9978 39.5735 57.1601 39.9064C57.3224 40.2393 57.474 40.4854 57.6147 40.6448L57.8561 40.918L58.451 40.9549C58.719 40.9715 58.9072 40.9724 59.0158 40.9576C59.1357 40.9327 59.339 40.8646 59.6257 40.7533C60.057 40.5648 60.407 40.3874 60.6755 40.2211C60.8778 40.083 61.0938 39.8973 61.3234 39.6641C61.5638 39.4315 61.686 39.283 61.69 39.2187C61.692 39.1865 61.5459 39.1129 61.2517 38.9978ZM61.7974 33.0594C61.8537 33.0199 61.9354 33.0034 62.0426 33.01C62.182 33.0187 62.319 33.0648 62.4537 33.1485C62.5468 33.2081 62.6028 33.26 62.6216 33.3042C62.6511 33.3491 62.6612 33.4465 62.6519 33.5966C62.6393 33.8003 62.5597 34.0429 62.4131 34.3243C62.2672 34.595 62.1266 34.78 61.9913 34.8793C61.6203 35.136 60.1585 35.1961 57.6059 35.0594C56.4589 34.9883 55.8837 34.9795 55.8804 35.0331C55.8784 35.0653 55.9496 35.3925 56.0939 36.0148C56.2497 36.6271 56.3326 36.9389 56.3426 36.9503C56.3728 36.9844 56.4321 36.9827 56.5205 36.9452C56.8534 36.7829 57.5829 36.6452 58.709 36.532C59.186 36.4755 59.7246 36.4659 60.3249 36.5031C60.8073 36.533 61.1594 36.5817 61.3812 36.6492C61.8569 36.7863 62.3217 37.0142 62.7754 37.3329C63.2405 37.6415 63.5291 37.9338 63.6411 38.2098C63.7162 38.3866 63.7451 38.6144 63.7279 38.8931C63.7013 39.3219 63.5648 39.7869 63.3185 40.2881C63.0729 40.7787 62.767 41.2009 62.4007 41.5548C61.8978 42.0294 61.2776 42.3999 60.5401 42.6662C59.8133 42.9332 59.123 43.0465 58.4691 43.0059C58.0403 42.9793 57.6748 42.8867 57.3726 42.7281C56.4458 42.2295 55.8168 41.0929 55.4856 39.3183C55.3882 38.8065 55.2904 38.1279 55.1921 37.2825C55.1046 36.4377 55.0581 35.7999 55.0525 35.3692C55.047 35.1106 55.0352 34.9538 55.0171 34.8989C54.999 34.844 54.953 34.8034 54.8793 34.7774C54.7949 34.7506 54.7175 34.6974 54.6471 34.6177C54.5881 34.5279 54.5609 34.4456 54.5656 34.3705C54.5669 34.3491 54.5796 34.3176 54.6037 34.276C54.672 34.2157 54.7544 34.1885 54.8509 34.1945C54.9152 34.1985 54.9591 34.1851 54.9825 34.1542C55.006 34.1234 55.027 34.044 55.0457 33.916C55.0651 33.7773 55.0861 33.6979 55.1089 33.6778C55.1323 33.647 55.203 33.6352 55.3209 33.6426C55.5139 33.6545 55.6506 33.7921 55.7311 34.0554C55.7412 34.0668 55.7569 34.0731 55.7784 34.0744C56.0142 34.0891 56.7558 34.0167 58.0032 33.8573C59.2613 33.6985 60.0762 33.5715 60.448 33.4761C60.5572 33.4506 60.7772 33.3728 61.1081 33.2427C61.3506 33.1501 61.4986 33.1055 61.5522 33.1088C61.6487 33.1148 61.7304 33.0983 61.7974 33.0594ZM65.4531 35.2553L65.24 37.1306C65.1093 38.3707 65.0423 39.0176 65.039 39.0712C65.0383 39.0819 65.1093 39.0648 65.252 39.0198C65.4061 38.9648 65.5883 38.89 65.7986 38.7955L66.5431 38.5026L66.2793 37.5501C66.1733 37.1777 65.9991 36.6019 65.7569 35.8229C65.7206 35.713 65.68 35.5868 65.6351 35.4441C65.5908 35.2907 65.5546 35.1808 65.5264 35.1145L65.5012 35L65.4531 35.2553ZM64.3893 32.1063C64.4843 31.9616 64.6625 31.865 64.9238 31.8166C65.185 31.7683 65.3907 31.7487 65.5408 31.758C65.7337 31.77 65.913 31.8295 66.0785 31.9366C66.234 32.0324 66.3509 32.1419 66.4294 32.2651C66.5185 32.389 66.6292 32.6003 66.7613 32.899C67.0162 33.4744 67.4732 34.8693 68.1322 37.0839C68.2476 37.4784 68.3439 37.748 68.421 37.8927C68.5095 38.0273 68.6275 38.1207 68.7749 38.1729C68.8801 38.2117 68.9254 38.349 68.9108 38.5848C68.9015 38.7349 68.8714 38.873 68.8205 38.9989C68.7938 39.0834 68.7794 39.1416 68.7774 39.1738C68.7688 39.3132 68.8577 39.7007 69.0443 40.3364C69.2477 41.0484 69.3444 41.4849 69.3344 41.6457C69.3171 41.9244 69.1994 42.2614 68.9812 42.6568C68.763 43.0522 68.5842 43.2456 68.4448 43.2369C68.3698 43.2323 68.2562 43.1553 68.104 43.006C67.7575 42.6939 67.4369 41.9638 67.1422 40.8157L66.959 40.1264L66.1782 40.2233C65.4841 40.3094 65.1318 40.3521 65.1211 40.3514C64.9911 40.3649 64.9141 40.3924 64.89 40.434C64.8652 40.4862 64.7773 40.9489 64.6264 41.8219C64.5389 42.3653 64.4523 42.7204 64.3666 42.8873C64.293 43.0334 64.2187 43.1041 64.1436 43.0994C64.0686 43.0948 63.9935 43.004 63.9184 42.8272C63.8614 42.7053 63.8258 42.4986 63.8116 42.2072C63.798 41.9051 63.8027 41.222 63.8256 40.1581C63.878 37.751 63.9497 35.8131 64.0407 34.3445C64.0872 33.5941 64.1265 33.1338 64.1586 32.9637C64.2287 32.5268 64.3056 32.241 64.3893 32.1063Z" fill="white"/>
<path d="M27.3568 31.0015C27.6575 30.9156 27.8777 30.8726 28.0173 30.8726C28.1891 30.8726 28.3717 30.9102 28.565 30.9854C28.6939 31.0391 28.7691 31.0874 28.7906 31.1304C28.8121 31.1734 28.8228 31.2861 28.8228 31.4687C28.8228 31.8339 28.5113 32.7898 27.8884 34.3363C27.4373 35.4748 27.142 36.2535 27.0023 36.6723L26.7285 37.4456L27.244 37.9773C27.5769 38.2995 28.1515 38.7882 28.9678 39.4433C29.7841 40.0985 30.2727 40.4583 30.4338 40.5227L30.6755 40.6194L30.6272 41.0704C30.6164 41.2316 30.6003 41.3497 30.5788 41.4249C30.5681 41.5001 30.5412 41.5806 30.4983 41.6665C30.4553 41.7525 30.4177 41.8437 30.3855 41.9404C30.2459 42.3808 30.0526 42.6009 29.8055 42.6009C29.7196 42.6009 29.6337 42.5794 29.5478 42.5365C29.4082 42.4613 29.0054 42.166 28.3395 41.6504C27.6843 41.1349 27.1151 40.6731 26.6318 40.2649L25.8907 39.6205L25.7135 40.0716C25.2839 41.1564 24.9134 41.6988 24.6019 41.6988C24.3119 41.6988 24.0112 41.4195 23.6997 40.861C23.4849 40.4851 23.1305 39.4218 22.6365 37.6712C22.4754 37.1127 22.2605 36.3716 21.992 35.448C21.7235 34.5136 21.5678 33.9712 21.5248 33.8208C21.3315 33.1979 21.2349 32.8059 21.2349 32.6448C21.2349 32.6125 21.2402 32.5911 21.251 32.5803C21.2939 32.5266 21.3745 32.4998 21.4926 32.4998C21.643 32.4998 21.7611 32.5427 21.8471 32.6287C22.1585 32.9401 22.9855 34.825 24.328 38.2834C24.328 38.3048 24.3388 38.3156 24.3603 38.3156C24.3925 38.3156 24.6234 37.639 25.053 36.2857C25.1604 35.9635 25.4558 35.1687 25.9391 33.9014C26.4224 32.634 26.7392 31.8231 26.8896 31.4687C26.9755 31.2861 27.0399 31.1734 27.0829 31.1304C27.1366 31.0767 27.2279 31.0337 27.3568 31.0015ZM32.1563 34.5941L32.0596 36.479C32.0059 37.7249 31.979 38.3747 31.979 38.4284C31.979 38.4391 32.0489 38.4176 32.1885 38.3639C32.3388 38.2995 32.5161 38.2136 32.7201 38.1062L33.4451 37.7678L33.1229 36.8334C32.994 36.4683 32.7846 35.9044 32.4946 35.1419C32.4516 35.0345 32.4033 34.9109 32.3496 34.7713C32.2959 34.621 32.2529 34.5136 32.2207 34.4491L32.1885 34.3363L32.1563 34.5941ZM30.8997 31.517C30.9856 31.3667 31.1574 31.2593 31.4152 31.1948C31.6729 31.1304 31.877 31.0982 32.0274 31.0982C32.2207 31.0982 32.4033 31.1465 32.5751 31.2432C32.7362 31.3291 32.8597 31.4311 32.9457 31.5493C33.0423 31.6674 33.1658 31.8715 33.3162 32.1615C33.6062 32.7199 34.1486 34.084 34.9433 36.2535C35.083 36.6401 35.1957 36.9033 35.2817 37.0429C35.3783 37.1718 35.5018 37.2577 35.6522 37.3006C35.7596 37.3329 35.8133 37.4671 35.8133 37.7034C35.8133 37.8538 35.7918 37.9934 35.7489 38.1223C35.7274 38.2082 35.7166 38.2673 35.7166 38.2995C35.7166 38.4391 35.8294 38.8204 36.0549 39.4433C36.302 40.1414 36.4255 40.571 36.4255 40.7321C36.4255 41.0114 36.3288 41.3551 36.1355 41.7632C35.9422 42.1713 35.7757 42.3754 35.6361 42.3754C35.5609 42.3754 35.4428 42.3056 35.2817 42.166C34.9165 41.876 34.5513 41.1671 34.1862 40.0394L33.9606 39.3628L33.1873 39.5078C32.4999 39.6366 32.1509 39.7011 32.1401 39.7011C32.0113 39.7226 31.9361 39.7548 31.9146 39.7977C31.8931 39.8514 31.8341 40.3186 31.7374 41.1993C31.6837 41.7471 31.6192 42.1069 31.5441 42.2787C31.4796 42.4291 31.4098 42.5043 31.3346 42.5043C31.2595 42.5043 31.1789 42.4183 31.093 42.2465C31.0285 42.1284 30.9802 41.9243 30.948 41.6343C30.9158 41.3336 30.8782 40.6516 30.8352 39.5883C30.7386 37.1825 30.6902 35.2439 30.6902 33.7725C30.6902 33.0207 30.701 32.5588 30.7224 32.387C30.7654 31.9467 30.8245 31.6567 30.8997 31.517Z" fill="white"/>
<path d="M93.8003 92.9086C95.8541 91.4487 94.9788 79.0387 93.2148 76.4961C93.4665 76.8589 92.4951 77.8625 91.7356 78.4295C91.4227 78.6632 91.2285 79.0647 91.2041 79.4544C91.0228 82.3511 87.3128 89.3163 86.8376 90.283C86.3023 91.3719 84.387 93.8935 84.4618 98.4564C84.4755 99.2897 86.063 99.663 86.6481 99.0695C88.8007 96.8859 92.1786 94.3595 93.6532 93.0209C93.7003 92.9781 93.7485 92.9455 93.8003 92.9086Z" fill="#8AC544" stroke="#262626" stroke-width="0.402757"/>
<path d="M33.7916 70.853C36.6326 59.4628 63.1339 51.4232 76.8677 63.2391C91.7271 76.0235 54.161 78.5497 33.7916 70.853Z" fill="#8AC544"/>
<path d="M75.1881 71.9837C57.3057 84.5498 41.9607 78.5621 36.5234 73.9975C43.9744 81.0458 54.4461 85.2747 60.0847 84.2678C65.7233 83.2609 70.1537 79.6361 75.1881 71.9837Z" fill="#262626" stroke="#262626" stroke-width="0.402757"/>
<path d="M38.1357 72.5878C37.2631 73.1919 35.4775 74.6016 35.3164 75.4071" stroke="#262626" stroke-width="0.402757"/>
<path d="M75.8973 73.8255C75.5396 72.8263 74.6401 70.7367 73.9037 70.3726" stroke="#262626" stroke-width="0.402757"/>
<path d="M51.4258 83.0595C53.0368 80.4416 60.6892 78.4278 64.5154 82.8582C61.092 84.6706 56.863 84.872 51.4258 83.0595Z" fill="#E37BA1" stroke="#262626" stroke-width="0.402757"/>
<path d="M34.5098 70.1712C37.5304 59.0954 68.3414 49.2278 81.2296 68.3588" stroke="#262626" stroke-width="0.402757"/>
<path d="M46.7112 44.1204C42.6908 45.8118 42.2245 55.6726 42.7061 61.5247C45.4669 59.8636 49.3244 58.8273 50.9081 58.5168C51.3258 53.7687 53.2393 41.3741 46.7112 44.1204Z" fill="white" stroke="#262626" stroke-width="0.402757"/>
<path d="M68.3133 43.3152C72.675 43.3152 72.8001 54.8674 72.3184 60.7195C69.5576 59.0583 65.2936 57.9963 63.7099 57.6858C63.7099 52.4499 61.4948 43.3152 68.3133 43.3152Z" fill="white" stroke="#262626" stroke-width="0.402757"/>
<mask id="mask0_259_838" style="mask-type:alpha" maskUnits="userSpaceOnUse" x="42" y="46" width="10" height="10">
<rect x="42.1621" y="46.61" width="9.26342" height="9.26342" fill="#D9D9D9"/>
</mask>
<g mask="url(#mask0_259_838)">
<circle cx="50.7212" cy="52.752" r="3.32275" fill="#262626"/>
</g>
<mask id="mask1_259_838" style="mask-type:alpha" maskUnits="userSpaceOnUse" x="63" y="49" width="7" height="8">
<rect width="6.44412" height="6.44412" transform="matrix(-1 0 0 1 69.9531 49.832)" fill="#D9D9D9"/>
</mask>
<g mask="url(#mask1_259_838)">
<circle cx="3.22206" cy="3.22206" r="3.22206" transform="matrix(-1 0 0 1 66.7305 49.832)" fill="#262626"/>
</g>
</svg>
